<svg width="107" height="107" viewBox="0 0 107 107" fill="none" xmlns="http://www.w3.org/2000/svg">
<g clip-path="url(#clip0_162_18)">
<path d="M5.34259 101.643H101.656V5.32922H5.34259V101.643ZM106.985 106.985H0V0H106.985V106.985Z" fill="white"/>
<path d="M64.445 43.2807H89.0744V18.6514H64.445V43.2807ZM95.0179 49.2244H58.5146V12.7212H95.0179V49.2244Z" fill="white"/>
<path d="M55.0419 45.538V43.2807H48.4838V12.7212H42.5669V19.9737H42.5401V43.2807H35.9822H17.9108V18.6514V12.7212H11.9805V49.2244H35.9822H48.4838H49.1116V54.2998H55.0419V45.538Z" fill="white"/>
<path d="M11.9805 94.2493H17.9108V89.1472V64.5178H42.5401V87.2906H42.5669V94.2493H48.4838V58.5742H11.9805V94.2493Z" fill="white"/>
<path d="M95.0179 58.5742H58.5146V94.2493H64.4315V87.2773H64.445V64.5178H89.0744V87.2773H89.0877V94.2493H95.0179V58.5742Z" fill="white"/>
</g>
<defs>
<clipPath id="clip0_162_18">
<rect width="107" height="107" fill="white"/>
</clipPath>
</defs>
</svg>
